<?xml version="1.0" encoding="UTF-8"?>
<svg id="Layer_1" data-name="Layer 1" xmlns="http://www.w3.org/2000/svg" viewBox="405 378 1115 325">
  <defs>
    <style>
      .cls-1 {
        fill: #112138;
      }

      .cls-2 {
        fill: #00dffe;
      }

      .cls-3 {
        fill: #5505c8;
      }

      .cls-4 {
        fill: #6304ec;
      }
    </style>
  </defs>
  <g>
    <polygon class="cls-4" points="536.15 422.49 655.06 488.44 655.06 454.69 535.3 388.35 535.31 388.35 415.55 454.69 415.55 489.82 527.88 551.54 551.69 530.91 444.63 472.42 536.15 422.49"/>
    <polygon class="cls-3" points="534.46 589.55 415.55 523.59 415.55 557.34 535.31 623.69 535.3 623.69 655.06 557.34 655.06 522.21 542.72 460.5 518.92 481.13 625.98 539.61 534.46 589.55"/>
    <polygon class="cls-1" points="655.06 591.56 655.06 625.32 535.31 691.65 535.3 691.65 415.55 625.32 415.55 591.56 534.45 657.52 535.3 657.05 536.16 657.52 655.06 591.56"/>
    <polygon class="cls-2" points="655.06 591.56 655.06 625.32 535.31 691.65 535.3 691.65 415.55 625.32 415.55 591.56 534.45 657.52 535.3 657.05 536.16 657.52 655.06 591.56"/>
  </g>
  <g>
    <path class="cls-1" d="M764.32,433.12c25.62,0,41.9,14.2,42.59,37.05h-22.16c-.52-10.91-8.31-17.31-20.77-17.31-13.68,0-22.51,6.58-22.51,17.14,0,9,4.85,14.02,15.41,16.45l19.91,4.33c21.64,4.67,32.2,15.75,32.2,34.63,0,23.55-18.35,38.78-46.23,38.78s-44.67-14.37-45.19-37.05h22.16c.17,10.73,8.83,17.14,23.03,17.14s24.06-6.41,24.06-16.97c0-8.48-4.33-13.5-14.72-15.75l-20.08-4.5c-21.47-4.67-32.72-16.97-32.72-36.36,0-22.16,18.35-37.57,45.01-37.57Z"/>
    <path class="cls-1" d="M833.92,561.92v-67.87h-16.45v-17.66h16.45v-26.66h21.12v26.66h16.62v17.66h-16.62v67.87h-21.12Z"/>
    <path class="cls-1" d="M880.49,537.51c0-15.75,11.43-25.62,31.68-27.18l25.62-1.9v-1.9c0-11.6-6.93-16.27-17.66-16.27-12.47,0-19.39,5.19-19.39,14.2h-18.01c0-18.52,15.24-30.64,38.43-30.64s37.22,12.47,37.22,36.18v51.94h-18.52l-1.56-12.64c-3.64,8.83-15.23,14.89-28.57,14.89-18.18,0-29.26-10.56-29.26-26.66ZM937.97,527.3v-4.5l-17.83,1.39c-13.16,1.21-18.18,5.54-18.18,12.47,0,7.79,5.19,11.6,14.72,11.6,12.98,0,21.3-7.79,21.3-20.95Z"/>
    <path class="cls-1" d="M1016.92,473.8c23.37,0,39.3,12.98,41.55,33.59h-21.12c-2.42-9.69-9.52-14.72-19.56-14.72-13.5,0-22.51,10.21-22.51,26.32s8.31,26.14,21.81,26.14c10.56,0,18.01-5.19,20.26-14.54h21.3c-2.6,19.91-19.22,33.59-41.55,33.59-25.97,0-42.94-18.01-42.94-45.19s17.49-45.19,42.76-45.19Z"/>
    <path class="cls-1" d="M1074.74,561.92v-128.81h20.95v79.12l33.24-35.84h26.49l-32.55,33.93,31.86,51.59h-24.24l-22.33-36.01-12.47,12.98v23.03h-20.95Z"/>
    <path class="cls-1" d="M1153.52,435.37h23.55l27.7,72.89c2.77,7.62,5.19,15.06,7.96,25.28,3.12-11.08,5.71-18.87,8.14-25.28l27.35-72.89h23.03l-47.09,126.56h-22.85l-47.78-126.56Z"/>
    <path class="cls-1" d="M1264.32,519.16c0-26.84,17.49-45.36,42.59-45.36s41.9,17.14,41.9,43.8v6.41l-64.4.17c1.56,15.06,9.52,22.68,23.55,22.68,11.6,0,19.22-4.5,21.64-12.64h19.56c-3.64,18.7-19.22,29.95-41.55,29.95-25.45,0-43.28-18.52-43.28-45.01ZM1284.92,510.68h42.94c0-11.77-8.14-19.56-20.78-19.56s-20.08,6.75-22.16,19.56Z"/>
    <path class="cls-1" d="M1419.44,495.61h-7.79c-15.23,0-24.76,8.14-24.76,24.76v41.55h-21.12v-85.35h19.91l1.21,12.47c3.64-8.48,11.77-14.2,23.2-14.2,2.94,0,5.89.35,9.35,1.21v19.56Z"/>
    <path class="cls-1" d="M1426.54,537.51c0-15.75,11.43-25.62,31.68-27.18l25.62-1.9v-1.9c0-11.6-6.93-16.27-17.66-16.27-12.47,0-19.39,5.19-19.39,14.2h-18.01c0-18.52,15.24-30.64,38.43-30.64s37.22,12.47,37.22,36.18v51.94h-18.52l-1.56-12.64c-3.64,8.83-15.23,14.89-28.57,14.89-18.18,0-29.26-10.56-29.26-26.66ZM1484.02,527.3v-4.5l-17.83,1.39c-13.16,1.21-18.18,5.54-18.18,12.47,0,7.79,5.19,11.6,14.72,11.6,12.98,0,21.3-7.79,21.3-20.95Z"/>
  </g>
  <g>
    <path class="cls-4" d="M738.87,620.7c-3.03,0-5.85-.5-8.46-1.49-2.6-.99-4.86-2.41-6.77-4.24-1.91-1.83-3.4-3.99-4.47-6.46-1.07-2.47-1.6-5.19-1.6-8.15s.53-5.68,1.6-8.15,2.57-4.63,4.5-6.46c1.93-1.83,4.19-3.25,6.77-4.24,2.58-.99,5.41-1.49,8.49-1.49,3.41,0,6.49.59,9.24,1.77,2.75,1.18,5.07,2.91,6.94,5.2l-5.84,5.39c-1.35-1.54-2.85-2.69-4.5-3.46-1.65-.77-3.45-1.15-5.39-1.15-1.84,0-3.52.3-5.06.9-1.54.6-2.87,1.46-3.99,2.58s-1.99,2.45-2.61,3.99c-.62,1.54-.93,3.24-.93,5.11s.31,3.58.93,5.11c.62,1.54,1.49,2.87,2.61,3.99s2.45,1.99,3.99,2.58c1.54.6,3.22.9,5.06.9,1.95,0,3.75-.38,5.39-1.15,1.65-.77,3.15-1.94,4.5-3.51l5.84,5.39c-1.87,2.29-4.19,4.03-6.94,5.23-2.75,1.2-5.85,1.8-9.3,1.8Z"/>
    <path class="cls-4" d="M814.06,620.7c-3.11,0-5.98-.51-8.63-1.52-2.64-1.01-4.93-2.44-6.86-4.27s-3.43-3.99-4.5-6.46c-1.07-2.47-1.6-5.17-1.6-8.09s.53-5.62,1.6-8.09,2.58-4.63,4.52-6.46c1.95-1.83,4.23-3.26,6.86-4.27,2.62-1.01,5.47-1.52,8.54-1.52s5.97.51,8.57,1.52c2.6,1.01,4.87,2.44,6.8,4.27,1.93,1.84,3.44,3.98,4.52,6.43,1.09,2.45,1.63,5.16,1.63,8.12s-.54,5.63-1.63,8.12c-1.09,2.49-2.59,4.65-4.52,6.46-1.93,1.82-4.2,3.23-6.8,4.24-2.6,1.01-5.44,1.52-8.51,1.52ZM814,612.94c1.76,0,3.38-.3,4.86-.9,1.48-.6,2.78-1.46,3.91-2.58s1.99-2.45,2.61-3.99c.62-1.54.93-3.24.93-5.11s-.31-3.58-.93-5.11c-.62-1.54-1.48-2.87-2.58-3.99-1.11-1.12-2.41-1.99-3.91-2.58-1.5-.6-3.13-.9-4.89-.9s-3.38.3-4.86.9c-1.48.6-2.78,1.46-3.91,2.58s-1.99,2.45-2.61,3.99c-.62,1.54-.93,3.24-.93,5.11s.31,3.53.93,5.09c.62,1.56,1.48,2.89,2.58,4.02,1.1,1.12,2.41,1.99,3.91,2.58,1.5.6,3.13.9,4.89.9Z"/>
    <path class="cls-4" d="M878.34,620.02v-39.34h16.8c5.47,0,9.72,1.26,12.76,3.79,3.03,2.53,4.55,6.02,4.55,10.48,0,2.92-.69,5.44-2.08,7.56-1.39,2.12-3.35,3.74-5.9,4.86-2.55,1.12-5.58,1.69-9.1,1.69h-11.97l4.05-3.99v14.95h-9.1ZM887.45,606.09l-4.05-4.27h11.46c2.81,0,4.91-.61,6.29-1.83,1.39-1.22,2.08-2.89,2.08-5.03s-.69-3.86-2.08-5.06c-1.39-1.2-3.48-1.8-6.29-1.8h-11.46l4.05-4.33v22.31ZM903.35,620.02l-9.83-14.27h9.72l9.95,14.27h-9.83Z"/>
    <path class="cls-4" d="M955.61,620.02v-39.34h29.73v7.31h-20.68v24.73h21.41v7.31h-30.46ZM963.98,603.61v-7.08h18.94v7.08h-18.94Z"/>
  </g>
</svg>
