<?xml version="1.0" encoding="UTF-8"?>
<svg id="Layer_1" data-name="Layer 1" xmlns="http://www.w3.org/2000/svg" viewBox="671 177 577 726">
  <defs>
    <style>
      .cls-1 {
        fill: #112138;
      }

      .cls-2 {
        fill: #00dffe;
      }

      .cls-3 {
        fill: #5505c8;
      }

      .cls-4 {
        fill: #6304ec;
      }
    </style>
  </defs>
  <polygon class="cls-4" points="961.97 266.78 1238.42 420.13 1238.42 341.66 959.99 187.41 960.01 187.41 681.58 341.66 681.58 423.34 942.75 566.83 998.09 518.86 749.18 382.89 961.97 266.78"/>
  <polygon class="cls-3" points="958.03 655.2 681.58 501.85 681.58 580.33 960.01 734.57 959.99 734.57 1238.42 580.33 1238.42 498.64 977.25 355.15 921.9 403.12 1170.82 539.09 958.03 655.2"/>
  <polygon class="cls-1" points="1238.43 659.88 1238.43 738.36 960.01 892.59 959.99 892.59 681.57 738.36 681.57 659.88 958.02 813.22 959.99 812.14 961.98 813.22 1238.43 659.88"/>
  <polygon class="cls-2" points="1238.43 659.88 1238.43 738.36 960.01 892.59 959.99 892.59 681.57 738.36 681.57 659.88 958.02 813.22 959.99 812.14 961.98 813.22 1238.43 659.88"/>
</svg>
